# This file uses centimeters as units for non-parametric coordinates.

mtllib star.mtl
v 0.489059 23.983415 -0.297641
v 0.022506 24.020062 -0.503653
v 0.683547 23.873652 -0.757621
v 0.216994 23.910298 -0.963632
v 0.894490 24.391319 -1.143253
v 0.427938 24.427965 -1.349265
v 0.622572 24.423180 -0.521776
v 0.156020 24.459827 -0.727788
v 0.515684 24.998620 -0.177345
v 0.049132 25.035268 -0.383357
v 0.377087 24.364968 0.023816
v -0.089466 24.401615 -0.182196
v 0.100082 24.202944 0.622318
v -0.366470 24.239590 0.416307
v 0.286343 23.779464 0.125165
v -0.180210 23.816111 -0.080846
v 0.222033 23.103886 0.150630
v -0.244519 23.140534 -0.055382
v 0.475746 23.475813 -0.357788
v 0.009194 23.512460 -0.563801
v 0.713004 23.220309 -0.940553
v 0.246452 23.256956 -1.146565
vt 0.165279 0.149769
vt 0.239195 0.251504
vt 0.000000 0.173785
vt 0.239195 0.000000
vt 0.313110 0.149769
vt 0.478389 0.173785
vt 0.358792 0.290364
vt 0.387025 0.454975
vt 0.239195 0.377256
vt 0.091364 0.454975
vt 0.119597 0.290364
vt 0.636940 0.584657
vt 0.574099 0.487519
vt 0.703111 0.404058
vt 0.765952 0.501195
vt 0.507928 0.668118
vt 0.445087 0.570980
vt 0.378916 0.751580
vt 0.316075 0.654442
vt 0.249903 0.835041
vt 0.187062 0.737903
vt 0.120891 0.918503
vt 0.058049 0.821364
vt 0.515078 0.828906
vt 0.460077 0.743886
vt 0.572994 0.670837
vt 0.627995 0.755857
vt 0.685911 0.597788
vt 0.740912 0.682808
vt 0.798828 0.524739
vt 0.853829 0.609759
vt 0.911745 0.451691
vt 0.966747 0.536710
vt 0.832123 0.320596
vt 0.894964 0.417734
vt 0.238273 0.252876
vt 0.238814 0.375826
vt 0.094612 0.452449
vt 0.383684 0.451177
vt 0.355372 0.290355
vt 0.471803 0.175860
vt 0.310103 0.153089
vt 0.237191 0.006976
vt 0.165567 0.153725
vt 0.004074 0.177918
vt 0.121508 0.291384
vn 0.912435 -0.071670 0.402896
vn 0.912435 -0.071670 0.402896
vn 0.912435 -0.071670 0.402896
vn 0.912435 -0.071670 0.402897
vn 0.912435 -0.071670 0.402897
vn 0.912435 -0.071670 0.402897
vn 0.912435 -0.071670 0.402896
vn 0.912435 -0.071670 0.402896
vn 0.912435 -0.071670 0.402897
vn 0.912435 -0.071670 0.402897
vn 0.912435 -0.071670 0.402897
vn 0.912435 -0.071670 0.402897
vn 0.912435 -0.071670 0.402896
vn 0.912435 -0.071670 0.402896
vn 0.912435 -0.071670 0.402896
vn 0.912434 -0.071672 0.402899
vn 0.912434 -0.071672 0.402899
vn 0.912434 -0.071672 0.402899
vn 0.912434 -0.071671 0.402898
vn 0.912434 -0.071671 0.402898
vn 0.912434 -0.071671 0.402898
vn 0.912434 -0.071670 0.402899
vn 0.912434 -0.071670 0.402899
vn 0.912434 -0.071670 0.402899
vn 0.912435 -0.071671 0.402897
vn 0.912435 -0.071671 0.402897
vn 0.912435 -0.071671 0.402897
vn 0.912435 -0.071671 0.402897
vn 0.912435 -0.071671 0.402897
vn 0.912435 -0.071671 0.402897
vn 0.406917 0.263260 -0.874707
vn 0.406917 0.263260 -0.874707
vn 0.406917 0.263260 -0.874707
vn 0.406917 0.263260 -0.874707
vn 0.266420 -0.643275 -0.717787
vn 0.266420 -0.643275 -0.717787
vn 0.266420 -0.643275 -0.717787
vn 0.266420 -0.643275 -0.717787
vn 0.084491 0.996324 -0.014111
vn 0.084491 0.996324 -0.014111
vn 0.084491 0.996324 -0.014111
vn 0.084491 0.996324 -0.014111
vn 0.377744 0.526183 -0.761867
vn 0.377744 0.526183 -0.761867
vn 0.377744 0.526183 -0.761867
vn 0.377744 0.526183 -0.761867
vn -0.354699 0.352501 0.865986
vn -0.354699 0.352501 0.865986
vn -0.354699 0.352501 0.865986
vn -0.354699 0.352501 0.865986
vn -0.032962 0.968474 0.246927
vn -0.032962 0.968473 0.246927
vn -0.032962 0.968474 0.246927
vn -0.032962 0.968473 0.246927
vn -0.303706 -0.778467 0.549320
vn -0.303706 -0.778467 0.549320
vn -0.303706 -0.778467 0.549320
vn -0.303706 -0.778467 0.549320
vn -0.398114 0.072366 0.914477
vn -0.398114 0.072366 0.914477
vn -0.398114 0.072366 0.914477
vn -0.398114 0.072366 0.914477
vn 0.166997 -0.833620 -0.526488
vn 0.166997 -0.833620 -0.526488
vn 0.166997 -0.833620 -0.526488
vn 0.166997 -0.833620 -0.526488
vn -0.213088 -0.923748 0.318250
vn -0.213088 -0.923748 0.318250
vn -0.213088 -0.923748 0.318250
vn -0.213088 -0.923748 0.318250
vn -0.912435 0.071670 -0.402898
vn -0.912435 0.071670 -0.402898
vn -0.912435 0.071670 -0.402898
vn -0.912435 0.071671 -0.402898
vn -0.912434 0.071671 -0.402898
vn -0.912434 0.071671 -0.402898
vn -0.912435 0.071672 -0.402897
vn -0.912435 0.071672 -0.402897
vn -0.912435 0.071672 -0.402897
vn -0.912434 0.071671 -0.402898
vn -0.912434 0.071671 -0.402898
vn -0.912434 0.071671 -0.402898
vn -0.912435 0.071671 -0.402897
vn -0.912435 0.071671 -0.402897
vn -0.912435 0.071671 -0.402897
vn -0.912435 0.071671 -0.402897
vn -0.912435 0.071671 -0.402897
vn -0.912435 0.071671 -0.402897
vn -0.912435 0.071671 -0.402897
vn -0.912435 0.071671 -0.402897
vn -0.912435 0.071671 -0.402897
vn -0.912435 0.071670 -0.402898
vn -0.912435 0.071670 -0.402898
vn -0.912435 0.071670 -0.402898
vn -0.912434 0.071670 -0.402898
vn -0.912434 0.071669 -0.402898
vn -0.912435 0.071669 -0.402898
vn -0.912435 0.071669 -0.402896
vn -0.912435 0.071669 -0.402897
vn -0.912435 0.071669 -0.402897
s off
usemtl lambert2SG
f 3/1/1 1/2/2 21/3/3
f 1/2/4 3/1/5 5/4/6
f 1/2/7 5/4/8 7/5/9
f 1/2/10 7/5/11 9/6/12
f 1/2/13 9/6/14 11/7/15
f 1/2/16 11/7/17 13/8/18
f 1/2/19 13/8/20 15/9/21
f 1/2/22 15/9/23 17/10/24
f 1/2/25 17/10/26 19/11/27
f 1/2/28 19/11/29 21/3/30
f 4/12/31 3/13/32 21/14/33 22/15/34
f 3/13/35 4/12/36 6/16/37 5/17/38
f 5/17/39 6/16/40 8/18/41 7/19/42
f 7/19/43 8/18/44 10/20/45 9/21/46
f 9/21/47 10/20/48 12/22/49 11/23/50
f 11/24/51 12/25/52 14/26/53 13/27/54
f 13/27/55 14/26/56 16/28/57 15/29/58
f 15/29/59 16/28/60 18/30/61 17/31/62
f 17/31/63 18/30/64 20/32/65 19/33/66
f 19/34/67 20/35/68 22/15/69 21/14/70
f 2/36/71 4/37/72 22/38/73
f 4/37/74 2/36/75 6/39/76
f 6/39/77 2/36/78 8/40/79
f 8/40/80 2/36/81 10/41/82
f 10/41/83 2/36/84 12/42/85
f 12/42/86 2/36/87 14/43/88
f 14/43/89 2/36/90 16/44/91
f 16/44/92 2/36/93 18/45/94
f 18/45/95 2/36/96 20/46/97
f 20/46/98 2/36/99 22/38/100
